<svg width="160" height="25" viewBox="0 0 160 25" fill="none" xmlns="http://www.w3.org/2000/svg">
<path d="M55.1275 17.7266H51.6779V11.5156C51.6779 9.69113 50.8691 8.77891 49.2514 8.77891C48.4742 8.76304 47.8319 9.04068 47.3244 9.6118C46.8327 10.1829 46.5869 10.8651 46.5869 11.6583V17.7266H43.2087V5.97086H46.3014L46.4204 7.47007C47.3561 6.24849 48.6249 5.65357 50.2268 5.6853C53.4939 5.6853 55.1275 7.62079 55.1275 11.4918V17.7266Z" fill="#00489D"/>
<path d="M61.2941 5.94706H57.8683V17.7266H61.2941V5.94706ZM58.2252 4.28128C57.8287 3.93225 57.6304 3.45631 57.6304 2.85345C57.6304 2.2506 57.8287 1.77466 58.2252 1.42563C58.6375 1.07661 59.0895 0.9021 59.5812 0.9021C60.0728 0.9021 60.5169 1.07661 60.9134 1.42563C61.3258 1.77466 61.532 2.2506 61.532 2.85345C61.532 3.45631 61.3258 3.93225 60.9134 4.28128C60.5169 4.6303 60.0728 4.80481 59.5812 4.80481C59.0895 4.80481 58.6375 4.6303 58.2252 4.28128Z" fill="#00489D"/>
<path d="M69.8495 8.8265C68.9772 8.8265 68.2794 9.11207 67.756 9.6832C67.2326 10.2385 66.9709 10.9603 66.9709 11.8487C66.9709 12.7213 67.2247 13.4431 67.7322 14.0143C68.2556 14.5854 68.9613 14.8709 69.8495 14.8709C70.7218 14.8709 71.4672 14.625 72.0857 14.1332C72.7043 13.6414 73.0136 12.8799 73.0136 11.8487C73.0136 10.9127 72.6964 10.175 72.062 9.6356C71.4276 9.0962 70.6901 8.8265 69.8495 8.8265ZM73.0611 1.09247H76.5107V17.7266H73.4418L73.2277 16.2274C72.3395 17.3696 71.039 17.9408 69.3261 17.9408C67.5974 17.9408 66.1938 17.3855 65.1153 16.275C64.0527 15.1486 63.5214 13.6732 63.5214 11.8487C63.5214 9.97669 64.0606 8.49334 65.1391 7.39868C66.2176 6.28816 67.6291 5.73289 69.3737 5.73289C70.928 5.73289 72.1571 6.28816 73.0611 7.39868V1.09247Z" fill="#00489D"/>
<path d="M78.9051 19.3448H82.0929C82.2039 20.9312 83.1873 21.7245 85.0429 21.7245C85.8517 21.7245 86.5337 21.5341 87.0888 21.1534C87.6598 20.7885 87.9452 20.257 87.9452 19.559C87.9452 18.2105 86.9936 17.5362 85.0904 17.5362C83.1555 17.5362 81.6092 17.0047 80.4514 15.9418C79.3095 14.863 78.7385 13.4193 78.7385 11.6108C78.7385 9.70699 79.3571 8.23158 80.5942 7.18451C81.8312 6.13744 83.33 5.61391 85.0904 5.61391C86.3117 5.61391 87.2315 5.82808 87.8501 6.25643L89.1347 4.59064L91.6089 6.4944L90.1101 8.27917C90.9665 9.31038 91.371 10.4368 91.3234 11.6583C91.2758 13.5621 90.4352 14.9344 88.8017 15.7752C90.5463 16.5526 91.4186 17.8138 91.4186 19.559C91.4186 21.2089 90.7921 22.486 89.5392 23.3903C88.2862 24.2946 86.7875 24.7467 85.0429 24.7467C83.0287 24.7467 81.4902 24.2708 80.4276 23.3189C79.3809 22.3829 78.8734 21.0582 78.9051 19.3448ZM85.0904 8.65992C84.1864 8.65992 83.4489 8.92169 82.878 9.44523C82.3229 9.96876 82.0453 10.6906 82.0453 11.6108C82.0453 12.4516 82.3308 13.1338 82.9018 13.6573C83.4886 14.165 84.2182 14.4188 85.0904 14.4188C85.9152 14.4188 86.613 14.1729 87.184 13.6811C87.7549 13.1893 88.0404 12.4992 88.0404 11.6108C88.0404 10.7858 87.7549 10.0877 87.184 9.51662C86.6289 8.94549 85.931 8.65992 85.0904 8.65992Z" fill="#00489D"/>
<path d="M105.275 12.9672H96.6391C96.7343 13.57 97.0594 14.0698 97.6145 14.4664C98.1696 14.8471 98.9071 15.0375 99.827 15.0375C101.143 15.0375 102.158 14.7282 102.872 14.1094L104.799 16.2512C103.625 17.4093 101.944 17.9884 99.7556 17.9884C97.6621 17.9884 96.0365 17.4252 94.8787 16.2988C93.7368 15.1724 93.1658 13.6494 93.1658 11.7297C93.1658 9.92117 93.7288 8.46162 94.8549 7.35109C95.9809 6.2247 97.4956 5.6615 99.3988 5.6615C101.476 5.6615 103.062 6.29609 104.157 7.56526C105.267 8.83444 105.64 10.6351 105.275 12.9672ZM96.6391 10.4685H102.206C102.174 9.86564 101.889 9.40556 101.35 9.08827C100.81 8.75511 100.16 8.58853 99.3988 8.58853C98.7168 8.58853 98.13 8.75511 97.6383 9.08827C97.1466 9.42143 96.8136 9.8815 96.6391 10.4685Z" fill="#00489D"/>
<path d="M0 15.0719C6.21601 12.213 12.7931 7.91225 16.5115 2.1879L16.5215 2.17261L16.5515 2.1879L21.5312 4.72118V13.6274C24.2893 10.812 28.6512 8.5387 32.7748 6.41336L38.125 9.62511C31.9306 12.4957 25.3926 16.7924 21.5674 22.506L16.5576 19.9114V11.088C13.7995 13.8942 9.53126 16.314 5.40768 18.4485L0 15.0719Z" fill="#F6652F"/>
<path d="M116.871 0.746582H118.54L109.864 20.8396H108.219L116.871 0.746582Z" fill="#F6652F"/>
<path d="M125.341 8.42149C124.054 8.42149 122.99 8.82669 122.148 9.63708C121.321 10.4316 120.908 11.5518 120.908 12.9978C120.908 14.4279 121.329 15.5482 122.171 16.3586C123.014 17.169 124.07 17.5742 125.341 17.5742C126.613 17.5742 127.669 17.1451 128.511 16.2871C129.37 15.429 129.799 14.3247 129.799 12.974C129.799 11.6392 129.37 10.5508 128.511 9.70859C127.669 8.85053 126.613 8.42149 125.341 8.42149ZM129.87 2.20052H131.467V18.8851H129.918L129.87 16.5254C129.409 17.3517 128.758 17.9873 127.916 18.4322C127.089 18.8772 126.199 19.0996 125.246 19.0996C123.514 19.0996 122.092 18.5594 120.98 17.4788C119.867 16.3983 119.311 14.9046 119.311 12.9978C119.311 11.091 119.867 9.59736 120.98 8.51683C122.092 7.43631 123.514 6.89604 125.246 6.89604C126.215 6.89604 127.121 7.11851 127.963 7.56343C128.805 7.99246 129.441 8.62012 129.87 9.4464V2.20052Z" fill="#F6652F"/>
<path d="M146.311 13.6652H136.062C136.173 14.8729 136.642 15.8263 137.468 16.5254C138.31 17.2246 139.327 17.5742 140.519 17.5742C141.266 17.5742 142.012 17.4312 142.759 17.1451C143.522 16.8591 144.102 16.4619 144.499 15.9534L145.572 16.9068C145.016 17.606 144.277 18.1462 143.355 18.5276C142.434 18.9089 141.488 19.0996 140.519 19.0996C138.739 19.0996 137.277 18.5435 136.133 17.4312C134.989 16.3189 134.417 14.8331 134.417 12.974C134.417 11.2102 134.981 9.75626 136.109 8.61217C137.253 7.46809 138.699 6.89604 140.447 6.89604C142.322 6.89604 143.824 7.47603 144.952 8.63601C146.08 9.7801 146.533 11.4565 146.311 13.6652ZM136.062 12.3066H144.809C144.793 11.0672 144.372 10.0979 143.546 9.39873C142.72 8.68368 141.695 8.32615 140.471 8.32615C139.279 8.32615 138.286 8.67573 137.492 9.3749C136.697 10.0741 136.221 11.0513 136.062 12.3066Z" fill="#F6652F"/>
<path d="M157.546 7.11056H159.309L154.352 18.9089H152.588L147.63 7.11056H149.394L153.47 17.1451L157.546 7.11056Z" fill="#F6652F"/>
</svg>
